<mxfile host="app.diagrams.net" agent="Mozilla/5.0 (Windows NT 10.0; Win64; x64) AppleWebKit/537.36 (KHTML, like Gecko) Chrome/140.0.0.0 Safari/537.36 Edg/140.0.0.0" version="28.2.5">
  <diagram name="Page-1" id="3matBruSAcgj6_KvUqIw">
    <mxGraphModel dx="2117" dy="1147" grid="1" gridSize="10" guides="1" tooltips="1" connect="1" arrows="1" fold="1" page="1" pageScale="1" pageWidth="1100" pageHeight="850" math="0" shadow="0">
      <root>
        <mxCell id="0" />
        <mxCell id="1" parent="0" />
        <mxCell id="Lt6OHq9H0NEp2cN9ZZlA-36" style="edgeStyle=orthogonalEdgeStyle;rounded=0;orthogonalLoop=1;jettySize=auto;html=1;exitX=0;exitY=0.5;exitDx=0;exitDy=0;entryX=0.5;entryY=0;entryDx=0;entryDy=0;" edge="1" parent="1" source="Lt6OHq9H0NEp2cN9ZZlA-1" target="Lt6OHq9H0NEp2cN9ZZlA-2">
          <mxGeometry relative="1" as="geometry" />
        </mxCell>
        <mxCell id="Lt6OHq9H0NEp2cN9ZZlA-1" value="APIM (Dev Tier)" style="rounded=0;whiteSpace=wrap;html=1;" vertex="1" parent="1">
          <mxGeometry x="200" y="120" width="120" height="60" as="geometry" />
        </mxCell>
        <mxCell id="Lt6OHq9H0NEp2cN9ZZlA-37" style="edgeStyle=orthogonalEdgeStyle;rounded=0;orthogonalLoop=1;jettySize=auto;html=1;exitX=0;exitY=0.5;exitDx=0;exitDy=0;entryX=0.5;entryY=0;entryDx=0;entryDy=0;" edge="1" parent="1" source="Lt6OHq9H0NEp2cN9ZZlA-2" target="Lt6OHq9H0NEp2cN9ZZlA-3">
          <mxGeometry relative="1" as="geometry" />
        </mxCell>
        <mxCell id="Lt6OHq9H0NEp2cN9ZZlA-38" style="edgeStyle=orthogonalEdgeStyle;rounded=0;orthogonalLoop=1;jettySize=auto;html=1;exitX=1;exitY=0.5;exitDx=0;exitDy=0;entryX=0.5;entryY=0;entryDx=0;entryDy=0;" edge="1" parent="1" source="Lt6OHq9H0NEp2cN9ZZlA-2" target="Lt6OHq9H0NEp2cN9ZZlA-4">
          <mxGeometry relative="1" as="geometry" />
        </mxCell>
        <mxCell id="Lt6OHq9H0NEp2cN9ZZlA-2" value="CAD (BU)" style="rounded=0;whiteSpace=wrap;html=1;" vertex="1" parent="1">
          <mxGeometry x="100" y="240" width="120" height="60" as="geometry" />
        </mxCell>
        <mxCell id="Lt6OHq9H0NEp2cN9ZZlA-39" style="edgeStyle=orthogonalEdgeStyle;rounded=0;orthogonalLoop=1;jettySize=auto;html=1;exitX=0;exitY=0.5;exitDx=0;exitDy=0;entryX=0.5;entryY=0;entryDx=0;entryDy=0;" edge="1" parent="1" source="Lt6OHq9H0NEp2cN9ZZlA-3" target="Lt6OHq9H0NEp2cN9ZZlA-5">
          <mxGeometry relative="1" as="geometry" />
        </mxCell>
        <mxCell id="Lt6OHq9H0NEp2cN9ZZlA-40" style="edgeStyle=orthogonalEdgeStyle;rounded=0;orthogonalLoop=1;jettySize=auto;html=1;exitX=0.5;exitY=1;exitDx=0;exitDy=0;entryX=0.5;entryY=0;entryDx=0;entryDy=0;" edge="1" parent="1" source="Lt6OHq9H0NEp2cN9ZZlA-3" target="Lt6OHq9H0NEp2cN9ZZlA-6">
          <mxGeometry relative="1" as="geometry" />
        </mxCell>
        <mxCell id="Lt6OHq9H0NEp2cN9ZZlA-3" value="Env (Dev)" style="rounded=0;whiteSpace=wrap;html=1;" vertex="1" parent="1">
          <mxGeometry x="-20" y="340" width="120" height="60" as="geometry" />
        </mxCell>
        <mxCell id="Lt6OHq9H0NEp2cN9ZZlA-41" style="edgeStyle=orthogonalEdgeStyle;rounded=0;orthogonalLoop=1;jettySize=auto;html=1;exitX=0;exitY=0.5;exitDx=0;exitDy=0;entryX=0.5;entryY=0;entryDx=0;entryDy=0;" edge="1" parent="1" source="Lt6OHq9H0NEp2cN9ZZlA-4" target="Lt6OHq9H0NEp2cN9ZZlA-7">
          <mxGeometry relative="1" as="geometry" />
        </mxCell>
        <mxCell id="Lt6OHq9H0NEp2cN9ZZlA-42" style="edgeStyle=orthogonalEdgeStyle;rounded=0;orthogonalLoop=1;jettySize=auto;html=1;exitX=0.5;exitY=1;exitDx=0;exitDy=0;entryX=0.5;entryY=0;entryDx=0;entryDy=0;" edge="1" parent="1" source="Lt6OHq9H0NEp2cN9ZZlA-4" target="Lt6OHq9H0NEp2cN9ZZlA-11">
          <mxGeometry relative="1" as="geometry" />
        </mxCell>
        <mxCell id="Lt6OHq9H0NEp2cN9ZZlA-4" value="Env (Trial)" style="rounded=0;whiteSpace=wrap;html=1;" vertex="1" parent="1">
          <mxGeometry x="220" y="340" width="120" height="60" as="geometry" />
        </mxCell>
        <mxCell id="Lt6OHq9H0NEp2cN9ZZlA-43" style="edgeStyle=orthogonalEdgeStyle;rounded=0;orthogonalLoop=1;jettySize=auto;html=1;exitX=0;exitY=0.5;exitDx=0;exitDy=0;entryX=0.5;entryY=0;entryDx=0;entryDy=0;" edge="1" parent="1" source="Lt6OHq9H0NEp2cN9ZZlA-5" target="Lt6OHq9H0NEp2cN9ZZlA-15">
          <mxGeometry relative="1" as="geometry" />
        </mxCell>
        <mxCell id="Lt6OHq9H0NEp2cN9ZZlA-45" style="edgeStyle=orthogonalEdgeStyle;rounded=0;orthogonalLoop=1;jettySize=auto;html=1;exitX=0.5;exitY=1;exitDx=0;exitDy=0;entryX=0.5;entryY=0;entryDx=0;entryDy=0;" edge="1" parent="1" source="Lt6OHq9H0NEp2cN9ZZlA-5" target="Lt6OHq9H0NEp2cN9ZZlA-17">
          <mxGeometry relative="1" as="geometry" />
        </mxCell>
        <mxCell id="Lt6OHq9H0NEp2cN9ZZlA-5" value="Product (CAD/Dev)" style="rounded=0;whiteSpace=wrap;html=1;" vertex="1" parent="1">
          <mxGeometry x="-190" y="450" width="120" height="60" as="geometry" />
        </mxCell>
        <mxCell id="Lt6OHq9H0NEp2cN9ZZlA-46" style="edgeStyle=orthogonalEdgeStyle;rounded=0;orthogonalLoop=1;jettySize=auto;html=1;exitX=0.5;exitY=1;exitDx=0;exitDy=0;entryX=0.5;entryY=0;entryDx=0;entryDy=0;" edge="1" parent="1" source="Lt6OHq9H0NEp2cN9ZZlA-6" target="Lt6OHq9H0NEp2cN9ZZlA-18">
          <mxGeometry relative="1" as="geometry">
            <Array as="points">
              <mxPoint x="20" y="640" />
              <mxPoint x="-280" y="640" />
            </Array>
          </mxGeometry>
        </mxCell>
        <mxCell id="Lt6OHq9H0NEp2cN9ZZlA-48" style="edgeStyle=orthogonalEdgeStyle;rounded=0;orthogonalLoop=1;jettySize=auto;html=1;exitX=0.5;exitY=1;exitDx=0;exitDy=0;" edge="1" parent="1" source="Lt6OHq9H0NEp2cN9ZZlA-6" target="Lt6OHq9H0NEp2cN9ZZlA-19">
          <mxGeometry relative="1" as="geometry">
            <Array as="points">
              <mxPoint x="20" y="640" />
              <mxPoint x="-120" y="640" />
            </Array>
          </mxGeometry>
        </mxCell>
        <mxCell id="Lt6OHq9H0NEp2cN9ZZlA-49" style="edgeStyle=orthogonalEdgeStyle;rounded=0;orthogonalLoop=1;jettySize=auto;html=1;exitX=0.5;exitY=1;exitDx=0;exitDy=0;entryX=0.5;entryY=0;entryDx=0;entryDy=0;" edge="1" parent="1" source="Lt6OHq9H0NEp2cN9ZZlA-6" target="Lt6OHq9H0NEp2cN9ZZlA-20">
          <mxGeometry relative="1" as="geometry">
            <Array as="points">
              <mxPoint x="20" y="670" />
            </Array>
          </mxGeometry>
        </mxCell>
        <mxCell id="Lt6OHq9H0NEp2cN9ZZlA-6" value="Product (CAD/Mock)" style="rounded=0;whiteSpace=wrap;html=1;" vertex="1" parent="1">
          <mxGeometry x="-40" y="450" width="120" height="60" as="geometry" />
        </mxCell>
        <mxCell id="Lt6OHq9H0NEp2cN9ZZlA-53" style="edgeStyle=orthogonalEdgeStyle;rounded=0;orthogonalLoop=1;jettySize=auto;html=1;exitX=0.5;exitY=1;exitDx=0;exitDy=0;entryX=0.5;entryY=0;entryDx=0;entryDy=0;" edge="1" parent="1" source="Lt6OHq9H0NEp2cN9ZZlA-7" target="Lt6OHq9H0NEp2cN9ZZlA-30">
          <mxGeometry relative="1" as="geometry">
            <Array as="points">
              <mxPoint x="170" y="667" />
            </Array>
          </mxGeometry>
        </mxCell>
        <mxCell id="Lt6OHq9H0NEp2cN9ZZlA-54" style="edgeStyle=orthogonalEdgeStyle;rounded=0;orthogonalLoop=1;jettySize=auto;html=1;exitX=0.5;exitY=1;exitDx=0;exitDy=0;entryX=0.5;entryY=0;entryDx=0;entryDy=0;" edge="1" parent="1" source="Lt6OHq9H0NEp2cN9ZZlA-7" target="Lt6OHq9H0NEp2cN9ZZlA-31">
          <mxGeometry relative="1" as="geometry">
            <Array as="points">
              <mxPoint x="170" y="640" />
              <mxPoint x="320" y="640" />
            </Array>
          </mxGeometry>
        </mxCell>
        <mxCell id="Lt6OHq9H0NEp2cN9ZZlA-55" style="edgeStyle=orthogonalEdgeStyle;rounded=0;orthogonalLoop=1;jettySize=auto;html=1;exitX=0.75;exitY=1;exitDx=0;exitDy=0;entryX=0.5;entryY=0;entryDx=0;entryDy=0;" edge="1" parent="1" source="Lt6OHq9H0NEp2cN9ZZlA-7" target="Lt6OHq9H0NEp2cN9ZZlA-32">
          <mxGeometry relative="1" as="geometry">
            <Array as="points">
              <mxPoint x="170" y="510" />
              <mxPoint x="170" y="640" />
              <mxPoint x="470" y="640" />
            </Array>
          </mxGeometry>
        </mxCell>
        <mxCell id="Lt6OHq9H0NEp2cN9ZZlA-7" value="Product (CAD/Trial)" style="rounded=0;whiteSpace=wrap;html=1;" vertex="1" parent="1">
          <mxGeometry x="110" y="450" width="120" height="60" as="geometry" />
        </mxCell>
        <mxCell id="Lt6OHq9H0NEp2cN9ZZlA-50" style="edgeStyle=orthogonalEdgeStyle;rounded=0;orthogonalLoop=1;jettySize=auto;html=1;exitX=0.5;exitY=1;exitDx=0;exitDy=0;entryX=0.5;entryY=0;entryDx=0;entryDy=0;" edge="1" parent="1" source="Lt6OHq9H0NEp2cN9ZZlA-11" target="Lt6OHq9H0NEp2cN9ZZlA-35">
          <mxGeometry relative="1" as="geometry" />
        </mxCell>
        <mxCell id="Lt6OHq9H0NEp2cN9ZZlA-51" style="edgeStyle=orthogonalEdgeStyle;rounded=0;orthogonalLoop=1;jettySize=auto;html=1;exitX=0.5;exitY=1;exitDx=0;exitDy=0;entryX=0.5;entryY=0;entryDx=0;entryDy=0;" edge="1" parent="1" source="Lt6OHq9H0NEp2cN9ZZlA-11" target="Lt6OHq9H0NEp2cN9ZZlA-34">
          <mxGeometry relative="1" as="geometry" />
        </mxCell>
        <mxCell id="Lt6OHq9H0NEp2cN9ZZlA-52" style="edgeStyle=orthogonalEdgeStyle;rounded=0;orthogonalLoop=1;jettySize=auto;html=1;exitX=0.5;exitY=1;exitDx=0;exitDy=0;entryX=0.5;entryY=0;entryDx=0;entryDy=0;" edge="1" parent="1" source="Lt6OHq9H0NEp2cN9ZZlA-11" target="Lt6OHq9H0NEp2cN9ZZlA-33">
          <mxGeometry relative="1" as="geometry" />
        </mxCell>
        <mxCell id="Lt6OHq9H0NEp2cN9ZZlA-11" value="Product (CAD/Mock)" style="rounded=0;whiteSpace=wrap;html=1;" vertex="1" parent="1">
          <mxGeometry x="260" y="450" width="120" height="60" as="geometry" />
        </mxCell>
        <mxCell id="Lt6OHq9H0NEp2cN9ZZlA-56" style="edgeStyle=orthogonalEdgeStyle;rounded=0;orthogonalLoop=1;jettySize=auto;html=1;exitX=0;exitY=0.5;exitDx=0;exitDy=0;entryX=0.5;entryY=0;entryDx=0;entryDy=0;" edge="1" parent="1" source="Lt6OHq9H0NEp2cN9ZZlA-12" target="Lt6OHq9H0NEp2cN9ZZlA-13">
          <mxGeometry relative="1" as="geometry" />
        </mxCell>
        <mxCell id="Lt6OHq9H0NEp2cN9ZZlA-12" value="APIM (Premium Tier)" style="rounded=0;whiteSpace=wrap;html=1;" vertex="1" parent="1">
          <mxGeometry x="720" y="110" width="120" height="60" as="geometry" />
        </mxCell>
        <mxCell id="Lt6OHq9H0NEp2cN9ZZlA-57" style="edgeStyle=orthogonalEdgeStyle;rounded=0;orthogonalLoop=1;jettySize=auto;html=1;exitX=0.5;exitY=1;exitDx=0;exitDy=0;entryX=0.5;entryY=0;entryDx=0;entryDy=0;" edge="1" parent="1" source="Lt6OHq9H0NEp2cN9ZZlA-13" target="Lt6OHq9H0NEp2cN9ZZlA-14">
          <mxGeometry relative="1" as="geometry" />
        </mxCell>
        <mxCell id="Lt6OHq9H0NEp2cN9ZZlA-13" value="CAD (BU)" style="rounded=0;whiteSpace=wrap;html=1;" vertex="1" parent="1">
          <mxGeometry x="640" y="230" width="120" height="60" as="geometry" />
        </mxCell>
        <mxCell id="Lt6OHq9H0NEp2cN9ZZlA-58" style="edgeStyle=orthogonalEdgeStyle;rounded=0;orthogonalLoop=1;jettySize=auto;html=1;exitX=0;exitY=0.5;exitDx=0;exitDy=0;entryX=0.5;entryY=0;entryDx=0;entryDy=0;" edge="1" parent="1" source="Lt6OHq9H0NEp2cN9ZZlA-14" target="Lt6OHq9H0NEp2cN9ZZlA-27">
          <mxGeometry relative="1" as="geometry" />
        </mxCell>
        <mxCell id="Lt6OHq9H0NEp2cN9ZZlA-59" style="edgeStyle=orthogonalEdgeStyle;rounded=0;orthogonalLoop=1;jettySize=auto;html=1;exitX=0.5;exitY=1;exitDx=0;exitDy=0;entryX=0.5;entryY=0;entryDx=0;entryDy=0;" edge="1" parent="1" source="Lt6OHq9H0NEp2cN9ZZlA-14" target="Lt6OHq9H0NEp2cN9ZZlA-28">
          <mxGeometry relative="1" as="geometry" />
        </mxCell>
        <mxCell id="Lt6OHq9H0NEp2cN9ZZlA-60" style="edgeStyle=orthogonalEdgeStyle;rounded=0;orthogonalLoop=1;jettySize=auto;html=1;exitX=1;exitY=0.5;exitDx=0;exitDy=0;entryX=0.5;entryY=0;entryDx=0;entryDy=0;" edge="1" parent="1" source="Lt6OHq9H0NEp2cN9ZZlA-14" target="Lt6OHq9H0NEp2cN9ZZlA-29">
          <mxGeometry relative="1" as="geometry" />
        </mxCell>
        <mxCell id="Lt6OHq9H0NEp2cN9ZZlA-14" value="Product CAD" style="rounded=0;whiteSpace=wrap;html=1;" vertex="1" parent="1">
          <mxGeometry x="640" y="330" width="120" height="60" as="geometry" />
        </mxCell>
        <mxCell id="Lt6OHq9H0NEp2cN9ZZlA-15" value="Schedules" style="rounded=0;whiteSpace=wrap;html=1;" vertex="1" parent="1">
          <mxGeometry x="-500" y="560" width="120" height="60" as="geometry" />
        </mxCell>
        <mxCell id="Lt6OHq9H0NEp2cN9ZZlA-44" style="edgeStyle=orthogonalEdgeStyle;rounded=0;orthogonalLoop=1;jettySize=auto;html=1;exitX=0.5;exitY=0;exitDx=0;exitDy=0;entryX=0.5;entryY=0;entryDx=0;entryDy=0;" edge="1" parent="1" target="Lt6OHq9H0NEp2cN9ZZlA-16">
          <mxGeometry relative="1" as="geometry">
            <mxPoint x="-190" y="480" as="sourcePoint" />
          </mxGeometry>
        </mxCell>
        <mxCell id="Lt6OHq9H0NEp2cN9ZZlA-16" value="Crew" style="rounded=0;whiteSpace=wrap;html=1;" vertex="1" parent="1">
          <mxGeometry x="-340" y="560" width="120" height="60" as="geometry" />
        </mxCell>
        <mxCell id="Lt6OHq9H0NEp2cN9ZZlA-17" value="GTB" style="rounded=0;whiteSpace=wrap;html=1;" vertex="1" parent="1">
          <mxGeometry x="-190" y="560" width="120" height="60" as="geometry" />
        </mxCell>
        <mxCell id="Lt6OHq9H0NEp2cN9ZZlA-18" value="Schedules" style="rounded=0;whiteSpace=wrap;html=1;" vertex="1" parent="1">
          <mxGeometry x="-340" y="670" width="120" height="60" as="geometry" />
        </mxCell>
        <mxCell id="Lt6OHq9H0NEp2cN9ZZlA-19" value="Crew" style="rounded=0;whiteSpace=wrap;html=1;" vertex="1" parent="1">
          <mxGeometry x="-180" y="670" width="120" height="60" as="geometry" />
        </mxCell>
        <mxCell id="Lt6OHq9H0NEp2cN9ZZlA-20" value="GTB" style="rounded=0;whiteSpace=wrap;html=1;" vertex="1" parent="1">
          <mxGeometry x="-40" y="670" width="120" height="60" as="geometry" />
        </mxCell>
        <mxCell id="Lt6OHq9H0NEp2cN9ZZlA-27" value="Schedules" style="rounded=0;whiteSpace=wrap;html=1;" vertex="1" parent="1">
          <mxGeometry x="485" y="440" width="120" height="60" as="geometry" />
        </mxCell>
        <mxCell id="Lt6OHq9H0NEp2cN9ZZlA-28" value="Crew" style="rounded=0;whiteSpace=wrap;html=1;" vertex="1" parent="1">
          <mxGeometry x="640" y="440" width="120" height="60" as="geometry" />
        </mxCell>
        <mxCell id="Lt6OHq9H0NEp2cN9ZZlA-29" value="GTB" style="rounded=0;whiteSpace=wrap;html=1;" vertex="1" parent="1">
          <mxGeometry x="795" y="440" width="120" height="60" as="geometry" />
        </mxCell>
        <mxCell id="Lt6OHq9H0NEp2cN9ZZlA-30" value="Schedules" style="rounded=0;whiteSpace=wrap;html=1;" vertex="1" parent="1">
          <mxGeometry x="110" y="667" width="120" height="60" as="geometry" />
        </mxCell>
        <mxCell id="Lt6OHq9H0NEp2cN9ZZlA-31" value="Crew" style="rounded=0;whiteSpace=wrap;html=1;" vertex="1" parent="1">
          <mxGeometry x="260" y="667" width="120" height="60" as="geometry" />
        </mxCell>
        <mxCell id="Lt6OHq9H0NEp2cN9ZZlA-32" value="GTB" style="rounded=0;whiteSpace=wrap;html=1;" vertex="1" parent="1">
          <mxGeometry x="410" y="667" width="120" height="60" as="geometry" />
        </mxCell>
        <mxCell id="Lt6OHq9H0NEp2cN9ZZlA-33" value="Schedules" style="rounded=0;whiteSpace=wrap;html=1;" vertex="1" parent="1">
          <mxGeometry x="260" y="566" width="120" height="60" as="geometry" />
        </mxCell>
        <mxCell id="Lt6OHq9H0NEp2cN9ZZlA-34" value="Crew" style="rounded=0;whiteSpace=wrap;html=1;" vertex="1" parent="1">
          <mxGeometry x="420" y="566" width="120" height="60" as="geometry" />
        </mxCell>
        <mxCell id="Lt6OHq9H0NEp2cN9ZZlA-35" value="GTB" style="rounded=0;whiteSpace=wrap;html=1;" vertex="1" parent="1">
          <mxGeometry x="570" y="566" width="120" height="60" as="geometry" />
        </mxCell>
      </root>
    </mxGraphModel>
  </diagram>
</mxfile>
